<svg xmlns="http://www.w3.org/2000/svg" viewBox="0 0 512 512">
  <circle cx="256" cy="256" r="200" fill="#f7941d"/>
  <path d="M256 56c-110.5 0-200 89.5-200 200s89.5 200 200 200 200-89.5 200-200S366.5 56 256 56zm0 380c-99.4 0-180-80.6-180-180S156.6 76 256 76s180 80.6 180 180-80.6 180-180 180z" fill="#f7941d"/>
  <path d="M256 120c-25.4 0-46 20.6-46 46s20.6 46 46 46 46-20.6 46-46-20.6-46-46-46z" fill="#ffffff"/>
  <path d="M256 212c-8.3 0-15 6.7-15 15v85c0 8.3 6.7 15 15 15s15-6.7 15-15v-85c0-8.3-6.7-15-15-15z" fill="#ffffff"/>
  <path d="M150 256c-8.3 0-15 6.7-15 15v30c0 8.3 6.7 15 15 15h30c8.3 0 15-6.7 15-15s-6.7-15-15-15h-15v-15c0-8.3-6.7-15-15-15z" fill="#8cc63f"/>
  <path d="M362 256c-8.3 0-15 6.7-15 15v15h-15c-8.3 0-15 6.7-15 15s6.7 15 15 15h30c8.3 0 15-6.7 15-15v-30c0-8.3-6.7-15-15-15z" fill="#4cc3d9"/>
</svg>